<?xml version="1.0" encoding="UTF-8" standalone="no"?>
<!-- Generator: Avocode 1.0.1 - http://avocode.com -->

<svg
   xmlns:dc="http://purl.org/dc/elements/1.1/"
   xmlns:cc="http://creativecommons.org/ns#"
   xmlns:rdf="http://www.w3.org/1999/02/22-rdf-syntax-ns#"
   xmlns:svg="http://www.w3.org/2000/svg"
   xmlns="http://www.w3.org/2000/svg"
   xmlns:sodipodi="http://sodipodi.sourceforge.net/DTD/sodipodi-0.dtd"
   xmlns:inkscape="http://www.inkscape.org/namespaces/inkscape"
   width="1198"
   height="30"
   viewBox="0 0 1198 30"
   id="svg2"
   version="1.1"
   inkscape:version="0.91 r13725"
   sodipodi:docname="bg-outside-bottom.svg">
  <metadata
     id="metadata12">
    <rdf:RDF>
      <cc:Work
         rdf:about="">
        <dc:format>image/svg+xml</dc:format>
        <dc:type
           rdf:resource="http://purl.org/dc/dcmitype/StillImage" />
      </cc:Work>
    </rdf:RDF>
  </metadata>
  <defs
     id="defs10" />
  <sodipodi:namedview
     pagecolor="#ffffff"
     bordercolor="#666666"
     borderopacity="1"
     objecttolerance="10"
     gridtolerance="10"
     guidetolerance="10"
     inkscape:pageopacity="0"
     inkscape:pageshadow="2"
     inkscape:window-width="1223"
     inkscape:window-height="709"
     id="namedview8"
     showgrid="false"
     inkscape:zoom="0.35642738"
     inkscape:cx="352.10539"
     inkscape:cy="15"
     inkscape:window-x="24"
     inkscape:window-y="20"
     inkscape:window-maximized="0"
     inkscape:current-layer="svg2" />
  <desc
     id="desc4">Created with Avocode</desc>
  <path
     d="m 1199,0 c 0,0 -600,0 -600,0 0,0 0,10.67 0,30 C 744.34,30 823.91,15.76 998.33,7.03 1108.79,1.51 1199,0 1199,0 c 0,0 0,0 0,0 M -1,0 c 0,0 600,0 600,0 0,0 0,10.67 0,30 C 453.66,30 374.09,15.76 199.67,7.03 89.21,1.51 -1,0 -1,0 c 0,0 0,0 0,0"
     id="path6"
     style="fill:#ffffff"
     inkscape:connector-curvature="0" />
</svg>
