<?xml version="1.0" encoding="UTF-8" standalone="no"?>
<!-- Created with Inkscape (http://www.inkscape.org/) -->

<svg
   xmlns:dc="http://purl.org/dc/elements/1.1/"
   xmlns:cc="http://creativecommons.org/ns#"
   xmlns:rdf="http://www.w3.org/1999/02/22-rdf-syntax-ns#"
   xmlns:svg="http://www.w3.org/2000/svg"
   xmlns="http://www.w3.org/2000/svg"
   xmlns:sodipodi="http://sodipodi.sourceforge.net/DTD/sodipodi-0.dtd"
   xmlns:inkscape="http://www.inkscape.org/namespaces/inkscape"
   width="176.12001mm"
   height="27.76754mm"
   id="svg2"
   version="1.1"
   inkscape:version="0.91 r13725"
   sodipodi:docname="logo.svg">
  <defs
     id="defs4" />
  <sodipodi:namedview
     id="base"
     pagecolor="#ffffff"
     bordercolor="#666666"
     borderopacity="1.0"
     inkscape:pageopacity="0.0"
     inkscape:pageshadow="2"
     inkscape:zoom="0.52780316"
     inkscape:cx="414.46739"
     inkscape:cy="-219.02545"
     inkscape:document-units="px"
     inkscape:current-layer="text3382"
     showgrid="false"
     inkscape:window-width="1276"
     inkscape:window-height="756"
     inkscape:window-x="0"
     inkscape:window-y="0"
     inkscape:window-maximized="0"
     inkscape:snap-bbox="true"
     inkscape:bbox-paths="true"
     inkscape:bbox-nodes="true"
     inkscape:snap-bbox-edge-midpoints="true"
     inkscape:snap-bbox-midpoints="true"
     fit-margin-top="0"
     fit-margin-left="0"
     fit-margin-right="0"
     fit-margin-bottom="0" />
  <metadata
     id="metadata7">
    <rdf:RDF>
      <cc:Work
         rdf:about="">
        <dc:format>image/svg+xml</dc:format>
        <dc:type
           rdf:resource="http://purl.org/dc/dcmitype/StillImage" />
        <dc:title />
      </cc:Work>
    </rdf:RDF>
  </metadata>
  <g
     inkscape:label="Camada 1"
     inkscape:groupmode="layer"
     id="layer1"
     transform="translate(-23.397993,-323.58227)">
    <g
       id="g3819"
       transform="translate(69.855278,-360.25786)"
       inkscape:export-filename="/home/fabio/Área de Trabalho/moo.png"
       inkscape:export-xdpi="32"
       inkscape:export-ydpi="32">
      <g
         id="g3831">
        <g
           id="g3011"
           transform="translate(0,-1.427059)"
           inkscape:export-filename="/home/fabio/Área de Trabalho/logo.png"
           inkscape:export-xdpi="40"
           inkscape:export-ydpi="40">
          <g
             id="g3048">
            <g
               inkscape:export-ydpi="40"
               inkscape:export-xdpi="40"
               inkscape:export-filename="/home/fabio/Área de Trabalho/logo.png"
               transform="translate(0,24.599415)"
               id="g3003">
              <g
                 style="font-style:normal;font-weight:normal;font-size:67.39502716px;line-height:100%;font-family:Sans;text-align:start;letter-spacing:0px;word-spacing:0px;text-anchor:start;fill:#000000;fill-opacity:1;stroke:none"
                 id="text3389">
                <path
                   d="m 332.61961,669.92075 q -7.34606,0 -7.34606,4.85244 0,2.15664 1.81966,3.30236 1.81967,1.14571 8.49178,3.30235 6.7395,2.15664 9.4353,4.91984 2.6958,2.6958 2.6958,8.35698 0,7.21127 -4.38067,10.918 -4.38068,3.70672 -11.45716,3.70672 -5.25681,0 -12.87245,-1.61748 l -2.42622,-0.47176 0.94353,-7.21127 q 9.03093,1.21311 13.81598,1.21311 7.14387,0 7.14387,-5.93076 0,-2.15664 -1.68487,-3.36975 -1.61748,-1.21311 -6.53732,-2.62841 -7.81782,-2.22404 -11.05278,-5.25681 -3.16757,-3.10017 -3.16757,-8.55917 0,-6.87429 4.17849,-10.24404 4.17849,-3.36976 11.45716,-3.36976 4.98723,0 12.67026,1.3479 l 2.42622,0.47177 -0.74134,7.34606 q -9.5027,-1.07832 -13.41161,-1.07832 z"
                   style="font-style:normal;font-variant:normal;font-weight:bold;font-stretch:normal;font-size:67.39502716px;line-height:100%;font-family:'Titillium Web';-inkscape-font-specification:'Titillium Web Bold';text-align:start;text-anchor:start;fill:#000000"
                   id="path3354" />
                <path
                   d="m 351.14797,670.86428 0,-8.2222 33.69752,0 0,8.2222 -12.13111,0 0,37.60642 -9.30051,0 0,-37.60642 -12.2659,0 z"
                   style="font-style:normal;font-variant:normal;font-weight:bold;font-stretch:normal;font-size:67.39502716px;line-height:100%;font-family:'Titillium Web';-inkscape-font-specification:'Titillium Web Bold';text-align:start;text-anchor:start;fill:#000000"
                   id="path3356" />
                <path
                   d="m 384.45692,708.4707 10.31144,-45.82862 17.65749,0 10.31144,45.82862 -9.30051,0 -1.81967,-8.28959 -16.04001,0 -1.81967,8.28959 -9.30051,0 z m 17.52271,-38.14558 -4.65026,21.76859 12.53547,0 -4.65025,-21.76859 -3.23496,0 z"
                   style="font-style:normal;font-variant:normal;font-weight:bold;font-stretch:normal;font-size:67.39502716px;line-height:100%;font-family:'Titillium Web';-inkscape-font-specification:'Titillium Web Bold';text-align:start;text-anchor:start;fill:#000000"
                   id="path3358" />
                <path
                   d="m 438.14126,693.10464 0,15.36606 -9.30051,0 0,-45.82862 17.79228,0 q 16.17481,0 16.17481,15.09649 0,8.96354 -6.7395,13.20943 l 6.53732,17.5227 -10.17665,0 -5.32421,-15.36606 -8.96354,0 z m 8.62656,-7.95262 q 3.30236,0 4.91984,-2.02185 1.61748,-2.02185 1.61748,-5.3242 0,-3.30236 -1.75227,-5.25682 -1.68487,-1.95445 -4.91984,-1.95445 l -8.49177,0 0,14.55732 8.62656,0 z"
                   style="font-style:normal;font-variant:normal;font-weight:bold;font-stretch:normal;font-size:67.39502716px;line-height:100%;font-family:'Titillium Web';-inkscape-font-specification:'Titillium Web Bold';text-align:start;text-anchor:start;fill:#000000"
                   id="path3360" />
                <path
                   d="m 466.58829,670.86428 0,-8.2222 33.69752,0 0,8.2222 -12.13111,0 0,37.60642 -9.30051,0 0,-37.60642 -12.2659,0 z"
                   style="font-style:normal;font-variant:normal;font-weight:bold;font-stretch:normal;font-size:67.39502716px;line-height:100%;font-family:'Titillium Web';-inkscape-font-specification:'Titillium Web Bold';text-align:start;text-anchor:start;fill:#000000"
                   id="path3362" />
                <path
                   d="m 506.23973,708.4707 0,-45.82862 29.65382,0 0,8.08741 -20.3533,0 0,10.71581 16.30959,0 0,7.95261 -16.30959,0 0,10.98539 20.3533,0 0,8.0874 -29.65382,0 z"
                   style="font-style:normal;font-variant:normal;font-weight:bold;font-stretch:normal;font-size:67.39502716px;line-height:100%;font-family:'Titillium Web';-inkscape-font-specification:'Titillium Web Bold';text-align:start;text-anchor:start;fill:#000000"
                   id="path3364" />
                <path
                   d="m 552.92343,693.10464 0,15.36606 -9.30052,0 0,-45.82862 17.79229,0 q 16.17481,0 16.17481,15.09649 0,8.96354 -6.73951,13.20943 l 6.53732,17.5227 -10.17665,0 -5.3242,-15.36606 -8.96354,0 z m 8.62656,-7.95262 q 3.30236,0 4.91984,-2.02185 1.61748,-2.02185 1.61748,-5.3242 0,-3.30236 -1.75227,-5.25682 -1.68488,-1.95445 -4.91984,-1.95445 l -8.49177,0 0,14.55732 8.62656,0 z"
                   style="font-style:normal;font-variant:normal;font-weight:bold;font-stretch:normal;font-size:67.39502716px;line-height:100%;font-family:'Titillium Web';-inkscape-font-specification:'Titillium Web Bold';text-align:start;text-anchor:start;fill:#000000"
                   id="path3366" />
              </g>
              <g
                 style="font-style:normal;font-weight:normal;font-size:56.89938354px;line-height:100%;font-family:Sans;text-align:start;letter-spacing:0px;word-spacing:0px;text-anchor:start;fill:#000000;fill-opacity:1;stroke:none"
                 id="text3378">
                <path
                   d="m 316.04041,727.30685 0,-6.94173 28.44969,0 0,6.94173 -10.24189,0 0,31.74985 -7.85211,0 0,-31.74985 -10.35569,0 z"
                   style="font-style:normal;font-variant:normal;font-weight:bold;font-stretch:normal;font-size:56.89938354px;line-height:100%;font-family:'Titillium Web';-inkscape-font-specification:'Titillium Web Bold';text-align:start;text-anchor:start;fill:#000000"
                   id="path3369" />
                <path
                   d="m 349.51681,759.0567 0,-38.69158 25.03573,0 0,6.82793 -17.18362,0 0,9.047 13.76966,0 0,6.71413 -13.76966,0 0,9.2746 17.18362,0 0,6.82792 -25.03573,0 z"
                   style="font-style:normal;font-variant:normal;font-weight:bold;font-stretch:normal;font-size:56.89938354px;line-height:100%;font-family:'Titillium Web';-inkscape-font-specification:'Titillium Web Bold';text-align:start;text-anchor:start;fill:#000000"
                   id="path3371" />
                <path
                   d="m 381.07818,759.0567 0,-38.69158 13.37136,0 6.82793,28.2221 6.82792,-28.2221 13.37136,0 0,38.69158 -7.85212,0 0,-29.92907 -0.85349,0 -7.56762,28.22209 -7.85211,0 -7.56762,-28.22209 -0.85349,0 0,29.92907 -7.85212,0 z"
                   style="font-style:normal;font-variant:normal;font-weight:bold;font-stretch:normal;font-size:56.89938354px;line-height:100%;font-family:'Titillium Web';-inkscape-font-specification:'Titillium Web Bold';text-align:start;text-anchor:start;fill:#000000"
                   id="path3373" />
                <path
                   d="m 444.20094,747.79062 -6.37273,0 0,11.26608 -7.85211,0 0,-38.69158 14.22484,0 q 13.76965,0 13.76965,13.42826 0,6.77102 -3.52776,10.41258 -3.47086,3.58466 -10.24189,3.58466 z m -6.37273,-6.71412 6.31583,0 q 5.86064,0 5.86064,-7.28312 0,-3.58467 -1.42249,-5.12095 -1.42248,-1.59318 -4.43815,-1.59318 l -6.31583,0 0,13.99725 z"
                   style="font-style:normal;font-variant:normal;font-weight:bold;font-stretch:normal;font-size:56.89938354px;line-height:100%;font-family:'Titillium Web';-inkscape-font-specification:'Titillium Web Bold';text-align:start;text-anchor:start;fill:#000000"
                   id="path3375" />
                <path
                   d="m 485.5579,759.0567 -22.02006,0 0,-38.69158 7.85212,0 0,31.74986 14.16794,0 0,6.94172 z"
                   style="font-style:normal;font-variant:normal;font-weight:bold;font-stretch:normal;font-size:56.89938354px;line-height:100%;font-family:'Titillium Web';-inkscape-font-specification:'Titillium Web Bold';text-align:start;text-anchor:start;fill:#000000"
                   id="path3377" />
                <path
                   d="m 487.18842,759.0567 8.70561,-38.69158 14.90763,0 8.70561,38.69158 -7.85212,0 -1.53628,-6.99862 -13.54205,0 -1.53629,6.99862 -7.85211,0 z m 14.79384,-32.20505 -3.92606,18.3785 10.58329,0 -3.92606,-18.3785 -2.73117,0 z"
                   style="font-style:normal;font-variant:normal;font-weight:bold;font-stretch:normal;font-size:56.89938354px;line-height:100%;font-family:'Titillium Web';-inkscape-font-specification:'Titillium Web Bold';text-align:start;text-anchor:start;fill:#000000"
                   id="path3379" />
                <path
                   d="m 519.07786,727.30685 0,-6.94173 28.44969,0 0,6.94173 -10.24189,0 0,31.74985 -7.85211,0 0,-31.74985 -10.35569,0 z"
                   style="font-style:normal;font-variant:normal;font-weight:bold;font-stretch:normal;font-size:56.89938354px;line-height:100%;font-family:'Titillium Web';-inkscape-font-specification:'Titillium Web Bold';text-align:start;text-anchor:start;fill:#000000"
                   id="path3381" />
                <path
                   d="m 552.55426,759.0567 0,-38.69158 25.03573,0 0,6.82793 -17.18362,0 0,9.047 13.76965,0 0,6.71413 -13.76965,0 0,9.2746 17.18362,0 0,6.82792 -25.03573,0 z"
                   style="font-style:normal;font-variant:normal;font-weight:bold;font-stretch:normal;font-size:56.89938354px;line-height:100%;font-family:'Titillium Web';-inkscape-font-specification:'Titillium Web Bold';text-align:start;text-anchor:start;fill:#000000"
                   id="path3383" />
              </g>
              <g
                 style="font-style:normal;font-weight:normal;font-size:142.97549438px;line-height:100%;font-family:Sans;text-align:start;letter-spacing:0px;word-spacing:0px;text-anchor:start;fill:#999999;fill-opacity:1;stroke:none"
                 id="text3382">
                <path
                   d="m 9.4461331,757.89111 0,-40.31909 -36.1728001,0 0,40.31909 -19.730618,0 0,-97.22333 19.730618,0 0,39.74718 36.1728001,0 0,-39.74718 19.7306179,0 0,97.22333 -19.7306179,0 z"
                   style="font-style:normal;font-variant:normal;font-weight:bold;font-stretch:normal;font-size:142.97549438px;line-height:100%;font-family:'Titillium Web';-inkscape-font-specification:'Titillium Web Bold';text-align:start;text-anchor:start;fill:#999999"
                   id="path3345" />
                <path
                   d="m 41.720616,678.11079 0,-17.44301 71.487744,0 0,17.44301 -25.735586,0 0,79.78032 -19.730618,0 0,-79.78032 -26.02154,0 z"
                   style="font-style:normal;font-variant:normal;font-weight:bold;font-stretch:normal;font-size:142.97549438px;line-height:100%;font-family:'Titillium Web';-inkscape-font-specification:'Titillium Web Bold';text-align:start;text-anchor:start;fill:#999999"
                   id="path3347" />
                <path
                   d="m 125.83935,757.89111 0,-97.22333 33.59924,0 17.15706,70.91584 17.15706,-70.91584 33.59924,0 0,97.22333 -19.73062,0 0,-75.20511 -2.14463,0 -19.01574,70.91585 -19.73062,0 -19.01574,-70.91585 -2.14464,0 0,75.20511 -19.73061,0 z"
                   style="font-style:normal;font-variant:normal;font-weight:bold;font-stretch:normal;font-size:142.97549438px;line-height:100%;font-family:'Titillium Web';-inkscape-font-specification:'Titillium Web Bold';text-align:start;text-anchor:start;fill:#999999"
                   id="path3349" />
                <path
                   d="m 304.04043,757.89111 -55.33152,0 0,-97.22333 19.73062,0 0,79.78032 35.6009,0 0,17.44301 z"
                   style="font-style:normal;font-variant:normal;font-weight:bold;font-stretch:normal;font-size:142.97549438px;line-height:100%;font-family:'Titillium Web';-inkscape-font-specification:'Titillium Web Bold';text-align:start;text-anchor:start;fill:#999999"
                   id="path3351" />
              </g>
            </g>
          </g>
        </g>
      </g>
    </g>
  </g>
</svg>
